Coordinates
version=1
nRows=4
nColumns=114
inDegrees=yes

Units are S.I. units (second, meters, Newtons, ...)
If the header above contains a line with 'inDegrees', this indicates whether rotational values are in degrees (yes) or radians (no).

endheader 
time	pelvis_tilt	pelvis_list	pelvis_rotation	pelvis_tx	pelvis_ty	pelvis_tz	hip_flexion_l	hip_adduction_l	hip_rotation_l	hip_flexion_r	hip_adduction_r	hip_rotation_r	knee_angle_l	knee_angle_r	ankle_angle_l	ankle_angle_r	subtalar_angle_l	subtalar_angle_r	mtp_angle_l	mtp_angle_r	lumbar_extension	lumbar_bending	lumbar_rotation	arm_flex_l	arm_add_l	arm_rot_l	arm_flex_r	arm_add_r	arm_rot_r	elbow_flex_l	elbow_flex_r	pro_sup_l	pro_sup_r	addbrev_l/activation	addlong_l/activation	addmagDist_l/activation	addmagIsch_l/activation	addmagMid_l/activation	addmagProx_l/activation	bflh_l/activation	bfsh_l/activation	edl_l/activation	ehl_l/activation	fdl_l/activation	fhl_l/activation	gaslat_l/activation	gasmed_l/activation	glmax1_l/activation	glmax2_l/activation	glmax3_l/activation	glmed1_l/activation	glmed2_l/activation	glmed3_l/activation	glmin1_l/activation	glmin2_l/activation	glmin3_l/activation	grac_l/activation	iliacus_l/activation	perbrev_l/activation	perlong_l/activation	piri_l/activation	psoas_l/activation	recfem_l/activation	sart_l/activation	semimem_l/activation	semiten_l/activation	soleus_l/activation	tfl_l/activation	tibant_l/activation	tibpost_l/activation	vasint_l/activation	vaslat_l/activation	vasmed_l/activation	addbrev_r/activation	addlong_r/activation	addmagDist_r/activation	addmagIsch_r/activation	addmagMid_r/activation	addmagProx_r/activation	bflh_r/activation	bfsh_r/activation	edl_r/activation	ehl_r/activation	fdl_r/activation	fhl_r/activation	gaslat_r/activation	gasmed_r/activation	glmax1_r/activation	glmax2_r/activation	glmax3_r/activation	glmed1_r/activation	glmed2_r/activation	glmed3_r/activation	glmin1_r/activation	glmin2_r/activation	glmin3_r/activation	grac_r/activation	iliacus_r/activation	perbrev_r/activation	perlong_r/activation	piri_r/activation	psoas_r/activation	recfem_r/activation	sart_r/activation	semimem_r/activation	semiten_r/activation	soleus_r/activation	tfl_r/activation	tibant_r/activation	tibpost_r/activation	vasint_r/activation	vaslat_r/activation	vasmed_r/activation	
          1.41000000	        -16.33416497	          9.02787582	        -33.69490290	          1.13932436	          0.74731853	          0.32255914	         63.82070854	        -12.32166798	          0.28931118	         62.00431906	         -6.99930778	         -5.05027036	         81.17566179	         80.28073141	         32.67799208	         32.23761983	        -10.83111339	        -13.83989351	         -5.85340438	        -12.25383900	        -28.11525794	          2.53417145	          2.61221751	          6.93151981	        -15.61346933	         10.28284309	          3.59941166	        -18.86699098	          4.76529020	         33.62235132	         35.90857933	         67.12038159	         67.60682542	          0.01001750	          0.01000806	          0.02865395	          0.01008925	          0.03010335	          0.07243243	          0.22441735	          0.01007782	          0.01403665	          0.01567194	          0.01288665	          0.01341406	          0.02157429	          0.04372666	          0.01002017	          0.11178862	          0.22614949	          0.01000235	          0.01000424	          0.01000747	          0.01000675	          0.01000770	          0.01000963	          0.01013586	          0.01000598	          0.01338366	          0.02967355	          0.01002018	          0.01000911	          0.03443048	          0.03212538	          0.06677830	          0.02145391	          0.42777851	          0.02122416	          0.02484147	          0.01773561	          0.06124265	          0.19382362	          0.08510163	          0.01002943	          0.01001796	          0.10947840	          0.09084479	          0.05252713	          0.01005165	          0.25552417	          0.01004121	          0.01640184	          0.01455211	          0.01204745	          0.01267137	          0.01744389	          0.04115478	          0.18995184	          0.31692175	          0.14852401	          0.09626007	          0.09544011	          0.10415780	          0.02067488	          0.03229280	          0.04911169	          0.01014955	          0.01000935	          0.07864603	          0.11345854	          0.10817281	          0.01000627	          0.01728126	          0.01001890	          0.27204516	          0.06071491	          0.68545456	          0.01011231	          0.02023958	          0.02520990	          0.15453032	          0.48733062	          0.21472312	
          1.42000000	        -16.21122707	          8.92308215	        -33.70260487	          1.13963402	          0.74380232	          0.32280950	         64.13068753	        -12.39207003	          0.45693919	         62.34970681	         -6.87743209	         -4.77106692	         82.07495186	         81.26189961	         32.87856485	         32.34002393	        -10.68438409	        -14.17793444	         -6.20939574	        -12.66727841	        -28.49490507	          2.42580372	          2.52659935	          7.14316059	        -15.72123648	         10.77626806	          3.49757765	        -18.45028787	          4.39177104	         33.21481126	         36.09598194	         66.45320233	         66.60133531	          0.01001041	          0.01000516	          0.02391887	          0.01002865	          0.02512321	          0.06050612	          0.22038127	          0.01006925	          0.01270540	          0.01315620	          0.01075924	          0.01119289	          0.01797984	          0.03643942	          0.01001645	          0.10998107	          0.20017924	          0.01000195	          0.01000352	          0.01000626	          0.01000562	          0.01000651	          0.01000821	          0.01003673	          0.01000506	          0.01786177	          0.03759988	          0.01002020	          0.01000797	          0.02869257	          0.02677400	          0.11804296	          0.01793125	          0.51324191	          0.01769480	          0.02070794	          0.01478359	          0.07374971	          0.23015809	          0.10049978	          0.01001608	          0.01000905	          0.10091772	          0.07572415	          0.04910360	          0.01009578	          0.24488770	          0.01004047	          0.01367787	          0.01213554	          0.01004860	          0.01056289	          0.01453873	          0.03429738	          0.16053204	          0.36883366	          0.27503176	          0.08021793	          0.07953628	          0.08680735	          0.01723244	          0.02691474	          0.04093238	          0.01008383	          0.01000579	          0.07431028	          0.09455067	          0.10864480	          0.01000495	          0.01440173	          0.01002093	          0.28528766	          0.06080698	          0.77666737	          0.01006944	          0.01686739	          0.02100962	          0.16391345	          0.52503079	          0.22984021	
          1.43000000	        -16.07153416	          8.79853728	        -33.71310513	          1.14018578	          0.74022846	          0.32322214	         64.36045338	        -12.45771247	          0.66140180	         62.63038720	         -6.74215569	         -4.51945984	         82.94009199	         82.21853662	         33.14922105	         32.41822145	        -10.47240223	        -14.56880981	         -6.62166934	        -13.15610595	        -28.81308964	          2.31574645	          2.44281519	          7.33168617	        -15.82938711	         11.35688342	          3.30299974	        -17.97849934	          3.83247798	         32.71564586	         36.31153824	         65.56280632	         65.28343030	          0.01003380	          0.01001303	          0.04773561	          0.01201120	          0.04258415	          0.05477048	          0.20492255	          0.01006384	          0.01208234	          0.01199643	          0.01016172	          0.01005249	          0.01498483	          0.03037126	          0.01003470	          0.12737113	          0.20354230	          0.01000307	          0.01000556	          0.01000995	          0.01000881	          0.01000983	          0.01001261	          0.01191659	          0.01000629	          0.02500358	          0.05949206	          0.01002200	          0.01000825	          0.02391117	          0.02231435	          0.09837178	          0.02091834	          0.62340054	          0.01475692	          0.01726258	          0.01232926	          0.08019634	          0.27785382	          0.11497682	          0.01002260	          0.01001342	          0.15422904	          0.15110260	          0.07659323	          0.01006373	          0.22996651	          0.01003794	          0.01141104	          0.01013031	          0.01006970	          0.01003878	          0.01216327	          0.02858247	          0.24699453	          0.39594856	          0.22930710	          0.06685397	          0.06629800	          0.08122730	          0.01437116	          0.02244412	          0.03415088	          0.01026354	          0.01000652	          0.06192648	          0.07879315	          0.11090428	          0.01000471	          0.01200239	          0.01001587	          0.27808305	          0.08198085	          0.82709429	          0.01008964	          0.01405794	          0.02125019	          0.19114226	          0.58773240	          0.26597278	
          1.44000000	        -15.92774559	          8.65746606	        -33.70526371	          1.14104761	          0.73662093	          0.32380746	         64.51446520	        -12.49504807	          0.90455723	         62.82108888	         -6.61169886	         -4.27643093	         83.73624382	         83.11164930	         33.42809030	         32.55537277	        -10.25113424	        -14.86684943	         -7.13196879	        -13.73108410	        -29.03478362	          2.21352616	          2.32434812	          7.36035738	        -15.90901993	         11.72472964	          3.07535710	        -17.51474744	          3.43824862	         32.29902220	         36.40454922	         64.82975502	         64.28745089	          0.01000943	          0.01000501	          0.03978943	          0.01003817	          0.03549551	          0.04566293	          0.21911024	          0.01005591	          0.01010861	          0.01007315	          0.01009165	          0.01014685	          0.01249106	          0.02531025	          0.01002559	          0.12953513	          0.16963807	          0.01000243	          0.01000443	          0.01000811	          0.01000692	          0.01000815	          0.01001067	          0.01002868	          0.01000571	          0.03256682	          0.06664145	          0.01003824	          0.01000822	          0.01992677	          0.01859858	          0.08208188	          0.01744344	          0.68442474	          0.01231567	          0.01438982	          0.01028760	          0.10391325	          0.33702596	          0.14626185	          0.01003747	          0.01002087	          0.18047098	          0.14607786	          0.11039594	          0.01007791	          0.20581746	          0.01002983	          0.01003250	          0.01003567	          0.01023291	          0.02355832	          0.01088024	          0.02382111	          0.25083528	          0.41571333	          0.25263342	          0.07640495	          0.12854458	          0.14095173	          0.01222140	          0.02416228	          0.06062653	          0.01098140	          0.01000660	          0.05160764	          0.06566162	          0.11093902	          0.01000445	          0.01000562	          0.01001260	          0.24089730	          0.06833607	          0.85310279	          0.01009420	          0.01171879	          0.01771757	          0.22116126	          0.64883789	          0.30461190	
